<svg xmlns="http://www.w3.org/2000/svg" version="1.1" xmlns:xlink="http://www.w3.org/1999/xlink" width="512" height="512" x="0" y="0" viewBox="0 0 512.002 512.002" style="enable-background:new 0 0 512 512" xml:space="preserve" class=""><g><path d="M201.498 512.002c-1.991 0-4.008-.398-5.934-1.229a15 15 0 0 1-8.617-17.39l50.724-204.178h-136.67a15 15 0 0 1-13.99-20.412L187.273 9.589A15 15 0 0 1 201.263 0h137.962c5.069 0 9.795 2.56 12.565 6.806a15.002 15.002 0 0 1 1.162 14.242l-59.369 134.76h117.419a15 15 0 0 1 12.621 23.105L214.126 505.106a15 15 0 0 1-12.628 6.896z" fill="#40b8e8" opacity="1" data-original="#000000"></path></g></svg>